<mxfile host="app.diagrams.net" modified="2023-10-04T03:25:30.077Z" agent="Mozilla/5.0 (Windows NT 10.0; Win64; x64) AppleWebKit/537.36 (KHTML, like Gecko) Chrome/117.0.0.0 Safari/537.36" version="21.8.2" etag="g-ERIyHOT0GsO1HQ6anF" type="github">
  <diagram name="Page-1" id="LfY8wJtMdsiEwFg6lC09">
    <mxGraphModel>
      <root>
        <mxCell id="0" />
        <mxCell id="1" parent="0" />
      </root>
    </mxGraphModel>
  </diagram>
</mxfile>
